<svg xmlns="http://www.w3.org/2000/svg" width="32" height="28" viewBox="0 0 32 28" class="icon">
  <path id="_58" data-name="58" d="M1080,812a1,1,0,0,1-.949-1.317l2-6a1,1,0,0,1,.674-.645l7-2a1,1,0,0,1,.722.067l5.553,2.777,5.553-2.777a1,1,0,0,1,.722-.067l7,2a1,1,0,0,1,.674.645l2,6A1,1,0,0,1,1110,812Zm2.781-6.184L1081.385,810h27.225l-1.395-4.184-6.119-1.748-5.652,2.826a1,1,0,0,1-.895,0l-5.652-2.826ZM1087.5,793.5c0-5.239,3.364-9.5,7.5-9.5s7.5,4.262,7.5,9.5-3.364,9.5-7.5,9.5S1087.5,798.739,1087.5,793.5Zm2,0c0,4.065,2.518,7.5,5.5,7.5s5.5-3.434,5.5-7.5-2.519-7.5-5.5-7.5S1089.5,789.435,1089.5,793.5Z" transform="translate(-1078.997 -784.001)" fill="currentColor"/>
</svg>
