<svg id="HomeIcon" xmlns="http://www.w3.org/2000/svg" width="32" height="32" viewBox="0 0 32 32" class="icon">
  <path id="HomeIcon-2" data-name="HomeIcon" d="M1242,1821h6a1,1,0,0,0,1-1v-14h4a1,1,0,0,0,.707-1.707l-15-15a1,1,0,0,0-1.414,0l-15,15A1,1,0,0,0,1223,1806h4v14a1,1,0,0,0,1,1h6a1,1,0,0,0,1-1v-7h6v7A1,1,0,0,0,1242,1821Zm-8-10a1,1,0,0,0-1,1v7h-4v-14a1,1,0,0,0-1-1h-2.586L1238,1791.414,1250.582,1804H1248a1,1,0,0,0-1,1v14h-4v-7a1,1,0,0,0-1-1Z" transform="translate(-1221.996 -1789)" fill="currentColor"/>
</svg>
