<svg id="DiaryIcon" xmlns="http://www.w3.org/2000/svg" width="25" height="32" viewBox="0 0 25 32" class="icon">
  <path id="DiaryIcon-2" data-name="DiaryIcon" d="M368.006,1244h19a2,2,0,0,0,2-2v-28a2,2,0,0,0-2-2h-19a2,2,0,0,0-2,2v3h-1a1,1,0,1,0,0,2h1v2h-1a1,1,0,1,0,0,2h1v2h-1a1,1,0,1,0,0,2h1v2h-1a1,1,0,1,0,0,2h1v2h-1a1,1,0,1,0,0,2h1v2h-1a1,1,0,1,0,0,2h1v3A2,2,0,0,0,368.006,1244Zm19-2h-4v-28h4Zm-19-7h1a1,1,0,0,0,0-2h-1v-2h1a1,1,0,0,0,0-2h-1v-2h1a1,1,0,0,0,0-2h-1v-2h1a1,1,0,0,0,0-2h-1v-2h1a1,1,0,0,0,0-2h-1v-3h13v28h-13v-3h1a1,1,0,0,0,0-2h-1Z" transform="translate(-364.006 -1212)" fill="currentColor"/>
</svg>
