<svg id="trash" xmlns="http://www.w3.org/2000/svg" width="14" height="18.667" viewBox="0 0 14 18.667">
  <path id="_126" data-name="126" d="M799.75,1807.667a.584.584,0,0,1-.583-.583V1792.5h-.583a.583.583,0,1,1,0-1.167h3.792v-1.75a.584.584,0,0,1,.583-.583h4.083a.583.583,0,0,1,.583.583v1.75h3.792a.583.583,0,0,1,0,1.167h-.583v14.583a.583.583,0,0,1-.583.583Zm.583-1.167h9.333v-14h-9.333Zm3.208-15.167h2.917v-1.167h-2.917Zm2.625,13.417v-9.917a.583.583,0,0,1,1.167,0v9.917a.583.583,0,0,1-1.167,0Zm-3.5,0v-9.917a.583.583,0,0,1,1.167,0v9.917a.583.583,0,0,1-1.167,0Z" transform="translate(-798 -1789)" fill="#313539"/>
</svg>
