<svg id="Dico" xmlns="http://www.w3.org/2000/svg" width="27" height="32" viewBox="0 0 27 32" class="icon">
  <line id="線_7" data-name="線 7" y2="7" transform="translate(0.5 20.5)" fill="none" stroke="#EFEDE8" stroke-width="1"/>
  <g id="合体_2" data-name="合体 2" fill="none">
    <path d="M4,32a4,4,0,0,1-2.28-7.287A3,3,0,0,1,0,22V3A3,3,0,0,1,3,0H24a3,3,0,0,1,3,3V22a3,3,0,0,1-3,3H23v7Z" stroke="none"/>
    <path d="M 21.00040054321289 30.00040054321289 L 21.00040054321289 23.00020027160645 L 24.00029945373535 23.00020027160645 C 24.55154037475586 23.00020027160645 25 22.55133056640625 25 21.99959945678711 L 25 2.999700307846069 C 25 2.448460340499878 24.55154037475586 2.000000238418579 24.00029945373535 2.000000238418579 L 2.99970006942749 2.000000238418579 C 2.448460102081299 2.000000238418579 2 2.448460340499878 2 2.999700307846069 L 2 21.99959945678711 C 2 22.38511085510254 2.225430011749268 22.74081993103027 2.574320077896118 22.90582084655762 L 5.698060035705566 24.38313102722168 L 2.861059904098511 26.35585975646973 C 2.321890115737915 26.73077011108398 2 27.34536933898926 2 27.99990081787109 C 2 29.10297966003418 2.897020101547241 30.00040054321289 3.999599933624268 30.00040054321289 L 21.00040054321289 30.00040054321289 M 23.00040054321289 32.00040054321289 L 3.999599933624268 32.00040054321289 C 1.791000008583069 32.00040054321289 -1.77635683940025e-15 30.20940017700195 -1.77635683940025e-15 27.99990081787109 C -1.77635683940025e-15 26.6387996673584 0.6802999973297119 25.43626976013184 1.719259977340698 24.71381950378418 C 0.7030400037765503 24.23322105407715 -1.77635683940025e-15 23.19839096069336 -1.77635683940025e-15 21.99959945678711 L -1.77635683940025e-15 2.999700307846069 C -1.77635683940025e-15 1.342800259590149 1.34280002117157 2.716064386731887e-07 2.99970006942749 2.716064386731887e-07 L 24.00029945373535 2.716064386731887e-07 C 25.65719985961914 2.716064386731887e-07 27 1.342800259590149 27 2.999700307846069 L 27 21.99959945678711 C 27 23.6564998626709 25.65719985961914 25.00020027160645 24.00029945373535 25.00020027160645 L 23.00040054321289 25.00020027160645 L 23.00040054321289 32.00040054321289 Z" stroke="none" fill="#EFEDE8"/>
  </g>
  <line id="線_6" data-name="線 6" x2="4" transform="translate(23 31)" fill="none" stroke="#EFEDE8" stroke-width="2"/>
  <line id="線_8" data-name="線 8" x2="20" transform="translate(2.5 24)" fill="none" stroke="#EFEDE8" stroke-width="2"/>
  <text id="a" transform="translate(6 12)" fill="#EFEDE8" font-size="13" font-family="ArialMT, Arial"><tspan x="0" y="0">a</tspan></text>
  <text id="あ" transform="translate(13 20)" fill="#EFEDE8" font-size="9" font-family="HiraginoSans-W3, Hiragino Sans"><tspan x="0" y="0">あ</tspan></text>
</svg>
