<svg xmlns="http://www.w3.org/2000/svg" width="59.376" height="70.338" viewBox="0 0 59.376 70.338">
  <g id="_20180709user" data-name="20180709user" transform="translate(1.5 1.5)">
    <path id="楕円形_7" data-name="楕円形 7" d="M19.488-1.5A20.982,20.982,0,0,1,34.329,34.329,20.988,20.988,0,1,1,11.318.15,20.858,20.858,0,0,1,19.488-1.5Zm0,38.976A17.988,17.988,0,0,0,32.208,6.769,17.988,17.988,0,1,0,6.769,32.208,17.87,17.87,0,0,0,19.488,37.476Z" transform="translate(8.7)" fill="#494848"/>
    <path id="パス_1" data-name="パス 1" d="M577.476,318.288a1.5,1.5,0,0,1-1.5-1.5,26.688,26.688,0,1,0-53.376,0,1.5,1.5,0,1,1-3,0,29.688,29.688,0,1,1,59.376,0A1.5,1.5,0,0,1,577.476,318.288Z" transform="translate(-521.1 -249.45)" fill="#494848"/>
  </g>
</svg>
