<svg xmlns="http://www.w3.org/2000/svg" width="25.711" height="25.698" viewBox="0 0 25.711 25.698" class="icon">
  <path id="_81" data-name="81" d="M72.67,1238.53a1.5,1.5,0,0,0,.608-.14l5.9-2.621a6.069,6.069,0,0,0,1.579-1.085l16.1-16.1a1.646,1.646,0,0,0,0-2.325l-2.948-2.948a1.646,1.646,0,0,0-2.324,0l-16.51,16.51a5.694,5.694,0,0,0-1.073,1.61l-2.251,5.467a1.212,1.212,0,0,0,.053,1.181A1.027,1.027,0,0,0,72.67,1238.53Zm6.921-5.009h0l-2.948-2.948,13.633-13.634,2.948,2.948Zm13.152-19.047,2.948,2.948-1.3,1.3-2.948-2.948Zm-17.226,17.584c.024-.058.057-.125.093-.193l2.554,2.554-4.429,1.967Z" transform="translate(-71.622 -1212.831)" fill="currentColor"/>
</svg>
