<svg xmlns="http://www.w3.org/2000/svg" width="23.999" height="32" viewBox="0 0 23.999 32" class="icon">
  <path id="_82" data-name="82" d="M225.008,1244a2,2,0,0,1-2-2v-21a3.749,3.749,0,0,1,1-2.415l5.586-5.585a3.746,3.746,0,0,1,2.414-1h13a2,2,0,0,1,2,2v28a2,2,0,0,1-2,2Zm0-2h20v-28h-13v5a2,2,0,0,1-2,2h-5Zm1.414-23h3.586v-3.586Zm2.586,21a1,1,0,1,1,0-2h12a1,1,0,1,1,0,2Zm0-5a1,1,0,0,1,0-2h12a1,1,0,0,1,0,2Zm0-5a1,1,0,0,1,0-2h12a1,1,0,0,1,0,2Zm0-5a1,1,0,0,1,0-2h12a1,1,0,0,1,0,2Zm6-5a1,1,0,0,1,0-2h6a1,1,0,0,1,0,2Z" transform="translate(-223.008 -1212)" fill="currentColor"/>
</svg>
